<svg width="282" height="60" viewBox="0 0 282 60" fill="none" xmlns="http://www.w3.org/2000/svg">
<mask id="mask0_162_3" style="mask-type:alpha" maskUnits="userSpaceOnUse" x="1" y="14" width="281" height="30">
<rect x="1" y="14" width="281" height="30" rx="12" fill="#D9D9D9"/>
</mask>
<g mask="url(#mask0_162_3)">
<rect x="1" y="14" width="56.2" height="30" fill="#993CD2"/>
<rect x="57.2" y="14" width="56.2" height="30" fill="#00920F"/>
<rect x="113.4" y="14" width="56.2" height="30" fill="#0ADD1F"/>
<rect x="169.6" y="14" width="56.2" height="30" fill="#F4B84E"/>
<rect x="225.8" y="14" width="56.2" height="30" fill="#FF0000"/>
<path d="M19.4136 32V31.592L21.7416 29.312C21.9549 29.104 22.1149 28.9227 22.2216 28.768C22.3282 28.608 22.4002 28.4587 22.4376 28.32C22.4749 28.1813 22.4936 28.0507 22.4936 27.928C22.4936 27.6027 22.3816 27.3467 22.1576 27.16C21.9389 26.9733 21.6136 26.88 21.1816 26.88C20.8509 26.88 20.5576 26.9307 20.3016 27.032C20.0509 27.1333 19.8349 27.2907 19.6536 27.504L19.2456 27.152C19.4642 26.896 19.7442 26.6987 20.0856 26.56C20.4269 26.4213 20.8082 26.352 21.2296 26.352C21.6082 26.352 21.9362 26.4133 22.2136 26.536C22.4909 26.6533 22.7042 26.8267 22.8536 27.056C23.0082 27.2853 23.0856 27.5547 23.0856 27.864C23.0856 28.0453 23.0589 28.224 23.0056 28.4C22.9576 28.576 22.8669 28.7627 22.7336 28.96C22.6056 29.152 22.4162 29.3707 22.1656 29.616L20.0296 31.712L19.8696 31.488H23.3416V32H19.4136ZM24.0659 30.08V29.584H26.1619V30.08H24.0659ZM28.8246 32.048C28.4246 32.048 28.0433 31.984 27.6806 31.856C27.318 31.7227 27.03 31.5467 26.8166 31.328L27.0966 30.872C27.2726 31.0587 27.5126 31.2133 27.8166 31.336C28.126 31.4587 28.4593 31.52 28.8166 31.52C29.2913 31.52 29.6513 31.416 29.8966 31.208C30.1473 30.9947 30.2726 30.7173 30.2726 30.376C30.2726 30.136 30.214 29.9307 30.0966 29.76C29.9846 29.584 29.7926 29.448 29.5206 29.352C29.2486 29.256 28.8753 29.208 28.4006 29.208H27.2086L27.4966 26.4H30.5606V26.912H27.7286L28.0246 26.632L27.7766 28.984L27.4806 28.696H28.5286C29.094 28.696 29.5473 28.7653 29.8886 28.904C30.23 29.0427 30.4753 29.2373 30.6246 29.488C30.7793 29.7333 30.8566 30.0213 30.8566 30.352C30.8566 30.6667 30.782 30.9547 30.6326 31.216C30.4833 31.472 30.2593 31.6747 29.9606 31.824C29.662 31.9733 29.2833 32.048 28.8246 32.048ZM34.4336 32L38.2576 26.4H38.7296L34.9056 32H34.4336ZM34.8656 29.4C34.615 29.4 34.3936 29.3387 34.2016 29.216C34.0096 29.088 33.8603 28.9093 33.7536 28.68C33.6523 28.4507 33.6016 28.184 33.6016 27.88C33.6016 27.576 33.6523 27.3093 33.7536 27.08C33.8603 26.8507 34.0096 26.6747 34.2016 26.552C34.3936 26.424 34.615 26.36 34.8656 26.36C35.1163 26.36 35.335 26.424 35.5216 26.552C35.7136 26.6747 35.863 26.8507 35.9696 27.08C36.0763 27.3093 36.1296 27.576 36.1296 27.88C36.1296 28.184 36.0763 28.4507 35.9696 28.68C35.863 28.9093 35.7136 29.088 35.5216 29.216C35.335 29.3387 35.1163 29.4 34.8656 29.4ZM34.8656 29.04C35.127 29.04 35.335 28.9387 35.4896 28.736C35.6496 28.528 35.7296 28.2427 35.7296 27.88C35.7296 27.5173 35.6496 27.2347 35.4896 27.032C35.335 26.824 35.127 26.72 34.8656 26.72C34.599 26.72 34.3883 26.824 34.2336 27.032C34.079 27.2347 34.0016 27.5173 34.0016 27.88C34.0016 28.2427 34.079 28.528 34.2336 28.736C34.3883 28.9387 34.599 29.04 34.8656 29.04ZM38.2976 32.04C38.0523 32.04 37.8336 31.9787 37.6416 31.856C37.4496 31.728 37.3003 31.5493 37.1936 31.32C37.087 31.0907 37.0336 30.824 37.0336 30.52C37.0336 30.216 37.087 29.9493 37.1936 29.72C37.3003 29.4907 37.4496 29.3147 37.6416 29.192C37.8336 29.064 38.0523 29 38.2976 29C38.5536 29 38.775 29.064 38.9616 29.192C39.1536 29.3147 39.3003 29.4907 39.4016 29.72C39.5083 29.9493 39.5616 30.216 39.5616 30.52C39.5616 30.824 39.5083 31.0907 39.4016 31.32C39.3003 31.5493 39.1536 31.728 38.9616 31.856C38.775 31.9787 38.5536 32.04 38.2976 32.04ZM38.2976 31.68C38.559 31.68 38.767 31.5787 38.9216 31.376C39.0816 31.168 39.1616 30.8827 39.1616 30.52C39.1616 30.1573 39.0816 29.8747 38.9216 29.672C38.767 29.464 38.559 29.36 38.2976 29.36C38.0363 29.36 37.8256 29.464 37.6656 29.672C37.511 29.8747 37.4336 30.1573 37.4336 30.52C37.4336 30.8827 37.511 31.168 37.6656 31.376C37.8256 31.5787 38.0363 31.68 38.2976 31.68Z" fill="black"/>
<path d="M75.7276 32.048C75.2316 32.048 74.813 31.9387 74.4716 31.72C74.1303 31.496 73.8716 31.176 73.6956 30.76C73.5196 30.3387 73.4316 29.8347 73.4316 29.248C73.4316 28.6133 73.5383 28.0827 73.7516 27.656C73.9703 27.224 74.2716 26.8987 74.6556 26.68C75.0396 26.4613 75.485 26.352 75.9916 26.352C76.2423 26.352 76.4823 26.376 76.7116 26.424C76.941 26.472 77.1436 26.5493 77.3196 26.656L77.0876 27.12C76.9436 27.024 76.7783 26.9573 76.5916 26.92C76.405 26.8773 76.2076 26.856 75.9996 26.856C75.397 26.856 74.9143 27.048 74.5516 27.432C74.1943 27.816 74.0156 28.3893 74.0156 29.152C74.0156 29.2693 74.021 29.416 74.0316 29.592C74.0476 29.7627 74.0796 29.9333 74.1276 30.104L73.9276 29.952C73.9863 29.6747 74.101 29.44 74.2716 29.248C74.4423 29.0507 74.6556 28.9013 74.9116 28.8C75.1676 28.6987 75.4476 28.648 75.7516 28.648C76.125 28.648 76.453 28.7173 76.7356 28.856C77.0183 28.9947 77.2396 29.1893 77.3996 29.44C77.5596 29.6907 77.6396 29.9867 77.6396 30.328C77.6396 30.6747 77.557 30.9787 77.3916 31.24C77.2263 31.496 76.997 31.696 76.7036 31.84C76.4156 31.9787 76.0903 32.048 75.7276 32.048ZM75.7036 31.56C75.9703 31.56 76.205 31.512 76.4076 31.416C76.6156 31.3147 76.7783 31.1733 76.8956 30.992C77.013 30.8053 77.0716 30.5893 77.0716 30.344C77.0716 29.976 76.9436 29.6827 76.6876 29.464C76.437 29.2453 76.0956 29.136 75.6636 29.136C75.3756 29.136 75.125 29.1893 74.9116 29.296C74.6983 29.4027 74.5303 29.5493 74.4076 29.736C74.285 29.9173 74.2236 30.1253 74.2236 30.36C74.2236 30.5627 74.2796 30.7573 74.3916 30.944C74.5036 31.1253 74.669 31.2747 74.8876 31.392C75.1116 31.504 75.3836 31.56 75.7036 31.56ZM78.4097 30.08V29.584H80.5057V30.08H78.4097ZM82.2436 32V26.64L82.4996 26.912H80.9236V26.4H82.8196V32H82.2436ZM85.8302 32.048C85.4249 32.048 85.0409 31.984 84.6782 31.856C84.3209 31.7227 84.0329 31.5467 83.8142 31.328L84.0942 30.872C84.2755 31.0587 84.5182 31.2133 84.8222 31.336C85.1315 31.4587 85.4675 31.52 85.8302 31.52C86.2942 31.52 86.6489 31.4187 86.8942 31.216C87.1449 31.0133 87.2702 30.7413 87.2702 30.4C87.2702 30.0587 87.1475 29.7867 86.9022 29.584C86.6622 29.3813 86.2809 29.28 85.7582 29.28H85.3582V28.856L87.0862 26.688L87.1662 26.912H84.0462V26.4H87.6462V26.808L85.9182 28.976L85.6382 28.792H85.8542C86.5262 28.792 87.0275 28.9413 87.3582 29.24C87.6942 29.5387 87.8622 29.9227 87.8622 30.392C87.8622 30.7067 87.7875 30.9893 87.6382 31.24C87.4889 31.4907 87.2622 31.688 86.9582 31.832C86.6595 31.976 86.2835 32.048 85.8302 32.048ZM91.5196 32L95.3436 26.4H95.8156L91.9916 32H91.5196ZM91.9516 29.4C91.7009 29.4 91.4796 29.3387 91.2876 29.216C91.0956 29.088 90.9462 28.9093 90.8396 28.68C90.7382 28.4507 90.6876 28.184 90.6876 27.88C90.6876 27.576 90.7382 27.3093 90.8396 27.08C90.9462 26.8507 91.0956 26.6747 91.2876 26.552C91.4796 26.424 91.7009 26.36 91.9516 26.36C92.2022 26.36 92.4209 26.424 92.6076 26.552C92.7996 26.6747 92.9489 26.8507 93.0556 27.08C93.1622 27.3093 93.2156 27.576 93.2156 27.88C93.2156 28.184 93.1622 28.4507 93.0556 28.68C92.9489 28.9093 92.7996 29.088 92.6076 29.216C92.4209 29.3387 92.2022 29.4 91.9516 29.4ZM91.9516 29.04C92.2129 29.04 92.4209 28.9387 92.5756 28.736C92.7356 28.528 92.8156 28.2427 92.8156 27.88C92.8156 27.5173 92.7356 27.2347 92.5756 27.032C92.4209 26.824 92.2129 26.72 91.9516 26.72C91.6849 26.72 91.4742 26.824 91.3196 27.032C91.1649 27.2347 91.0876 27.5173 91.0876 27.88C91.0876 28.2427 91.1649 28.528 91.3196 28.736C91.4742 28.9387 91.6849 29.04 91.9516 29.04ZM95.3836 32.04C95.1382 32.04 94.9196 31.9787 94.7276 31.856C94.5356 31.728 94.3862 31.5493 94.2796 31.32C94.1729 31.0907 94.1196 30.824 94.1196 30.52C94.1196 30.216 94.1729 29.9493 94.2796 29.72C94.3862 29.4907 94.5356 29.3147 94.7276 29.192C94.9196 29.064 95.1382 29 95.3836 29C95.6396 29 95.8609 29.064 96.0476 29.192C96.2396 29.3147 96.3862 29.4907 96.4876 29.72C96.5942 29.9493 96.6476 30.216 96.6476 30.52C96.6476 30.824 96.5942 31.0907 96.4876 31.32C96.3862 31.5493 96.2396 31.728 96.0476 31.856C95.8609 31.9787 95.6396 32.04 95.3836 32.04ZM95.3836 31.68C95.6449 31.68 95.8529 31.5787 96.0076 31.376C96.1676 31.168 96.2476 30.8827 96.2476 30.52C96.2476 30.1573 96.1676 29.8747 96.0076 29.672C95.8529 29.464 95.6449 29.36 95.3836 29.36C95.1222 29.36 94.9116 29.464 94.7516 29.672C94.5969 29.8747 94.5196 30.1573 94.5196 30.52C94.5196 30.8827 94.5969 31.168 94.7516 31.376C94.9116 31.5787 95.1222 31.68 95.3836 31.68Z" fill="black"/>
<path d="M129.638 32V26.64L129.894 26.912H128.318V26.4H130.214V32H129.638ZM131.457 30.528V30.112L134.425 26.4H135.065L132.121 30.112L131.809 30.016H136.313V30.528H131.457ZM134.617 32V30.528L134.633 30.016V28.72H135.193V32H134.617ZM136.984 30.08V29.584H139.08V30.08H136.984ZM140.818 32V26.64L141.074 26.912H139.498V26.4H141.394V32H140.818ZM143.716 32L146.132 26.656L146.308 26.912H142.844L143.14 26.632V27.96H142.572V26.4H146.684V26.808L144.34 32H143.716ZM150.289 32L154.113 26.4H154.585L150.761 32H150.289ZM150.721 29.4C150.47 29.4 150.249 29.3387 150.057 29.216C149.865 29.088 149.716 28.9093 149.609 28.68C149.508 28.4507 149.457 28.184 149.457 27.88C149.457 27.576 149.508 27.3093 149.609 27.08C149.716 26.8507 149.865 26.6747 150.057 26.552C150.249 26.424 150.47 26.36 150.721 26.36C150.972 26.36 151.19 26.424 151.377 26.552C151.569 26.6747 151.718 26.8507 151.825 27.08C151.932 27.3093 151.985 27.576 151.985 27.88C151.985 28.184 151.932 28.4507 151.825 28.68C151.718 28.9093 151.569 29.088 151.377 29.216C151.19 29.3387 150.972 29.4 150.721 29.4ZM150.721 29.04C150.982 29.04 151.19 28.9387 151.345 28.736C151.505 28.528 151.585 28.2427 151.585 27.88C151.585 27.5173 151.505 27.2347 151.345 27.032C151.19 26.824 150.982 26.72 150.721 26.72C150.454 26.72 150.244 26.824 150.089 27.032C149.934 27.2347 149.857 27.5173 149.857 27.88C149.857 28.2427 149.934 28.528 150.089 28.736C150.244 28.9387 150.454 29.04 150.721 29.04ZM154.153 32.04C153.908 32.04 153.689 31.9787 153.497 31.856C153.305 31.728 153.156 31.5493 153.049 31.32C152.942 31.0907 152.889 30.824 152.889 30.52C152.889 30.216 152.942 29.9493 153.049 29.72C153.156 29.4907 153.305 29.3147 153.497 29.192C153.689 29.064 153.908 29 154.153 29C154.409 29 154.63 29.064 154.817 29.192C155.009 29.3147 155.156 29.4907 155.257 29.72C155.364 29.9493 155.417 30.216 155.417 30.52C155.417 30.824 155.364 31.0907 155.257 31.32C155.156 31.5493 155.009 31.728 154.817 31.856C154.63 31.9787 154.409 32.04 154.153 32.04ZM154.153 31.68C154.414 31.68 154.622 31.5787 154.777 31.376C154.937 31.168 155.017 30.8827 155.017 30.52C155.017 30.1573 154.937 29.8747 154.777 29.672C154.622 29.464 154.414 29.36 154.153 29.36C153.892 29.36 153.681 29.464 153.521 29.672C153.366 29.8747 153.289 30.1573 153.289 30.52C153.289 30.8827 153.366 31.168 153.521 31.376C153.681 31.5787 153.892 31.68 154.153 31.68Z" fill="black"/>
<path d="M185.513 32V26.64L185.769 26.912H184.193V26.4H186.089V32H185.513ZM189.556 32.048C189.108 32.048 188.721 31.984 188.396 31.856C188.076 31.728 187.828 31.544 187.652 31.304C187.481 31.0587 187.396 30.7707 187.396 30.44C187.396 30.12 187.478 29.848 187.644 29.624C187.814 29.3947 188.06 29.2187 188.38 29.096C188.705 28.9733 189.097 28.912 189.556 28.912C190.009 28.912 190.398 28.9733 190.724 29.096C191.049 29.2187 191.297 29.3947 191.468 29.624C191.644 29.848 191.732 30.12 191.732 30.44C191.732 30.7707 191.644 31.0587 191.468 31.304C191.292 31.544 191.041 31.728 190.716 31.856C190.39 31.984 190.004 32.048 189.556 32.048ZM189.556 31.56C190.052 31.56 190.438 31.4587 190.716 31.256C190.998 31.0533 191.14 30.7787 191.14 30.432C191.14 30.0853 190.998 29.8133 190.716 29.616C190.438 29.4133 190.052 29.312 189.556 29.312C189.06 29.312 188.673 29.4133 188.396 29.616C188.118 29.8133 187.98 30.0853 187.98 30.432C187.98 30.7787 188.118 31.0533 188.396 31.256C188.673 31.4587 189.06 31.56 189.556 31.56ZM189.556 29.24C189.14 29.24 188.785 29.184 188.492 29.072C188.204 28.96 187.982 28.8 187.828 28.592C187.673 28.3787 187.596 28.1253 187.596 27.832C187.596 27.5227 187.676 27.2587 187.836 27.04C188.001 26.816 188.23 26.6453 188.524 26.528C188.817 26.4107 189.161 26.352 189.556 26.352C189.95 26.352 190.294 26.4107 190.588 26.528C190.886 26.6453 191.118 26.816 191.284 27.04C191.449 27.2587 191.532 27.5227 191.532 27.832C191.532 28.1253 191.454 28.3787 191.3 28.592C191.145 28.8 190.918 28.96 190.62 29.072C190.326 29.184 189.972 29.24 189.556 29.24ZM189.556 28.856C189.993 28.856 190.334 28.7653 190.58 28.584C190.825 28.4027 190.948 28.16 190.948 27.856C190.948 27.536 190.82 27.288 190.564 27.112C190.313 26.9307 189.977 26.84 189.556 26.84C189.134 26.84 188.798 26.9307 188.548 27.112C188.297 27.288 188.172 27.5333 188.172 27.848C188.172 28.1573 188.292 28.4027 188.532 28.584C188.777 28.7653 189.118 28.856 189.556 28.856ZM192.593 30.08V29.584H194.689V30.08H192.593ZM195.386 32V31.592L197.714 29.312C197.928 29.104 198.088 28.9227 198.194 28.768C198.301 28.608 198.373 28.4587 198.41 28.32C198.448 28.1813 198.466 28.0507 198.466 27.928C198.466 27.6027 198.354 27.3467 198.13 27.16C197.912 26.9733 197.586 26.88 197.154 26.88C196.824 26.88 196.53 26.9307 196.274 27.032C196.024 27.1333 195.808 27.2907 195.626 27.504L195.218 27.152C195.437 26.896 195.717 26.6987 196.058 26.56C196.4 26.4213 196.781 26.352 197.202 26.352C197.581 26.352 197.909 26.4133 198.186 26.536C198.464 26.6533 198.677 26.8267 198.826 27.056C198.981 27.2853 199.058 27.5547 199.058 27.864C199.058 28.0453 199.032 28.224 198.978 28.4C198.93 28.576 198.84 28.7627 198.706 28.96C198.578 29.152 198.389 29.3707 198.138 29.616L196.002 31.712L195.842 31.488H199.314V32H195.386ZM201.805 32.048C201.405 32.048 201.024 31.984 200.661 31.856C200.298 31.7227 200.01 31.5467 199.797 31.328L200.077 30.872C200.253 31.0587 200.493 31.2133 200.797 31.336C201.106 31.4587 201.44 31.52 201.797 31.52C202.272 31.52 202.632 31.416 202.877 31.208C203.128 30.9947 203.253 30.7173 203.253 30.376C203.253 30.136 203.194 29.9307 203.077 29.76C202.965 29.584 202.773 29.448 202.501 29.352C202.229 29.256 201.856 29.208 201.381 29.208H200.189L200.477 26.4H203.541V26.912H200.709L201.005 26.632L200.757 28.984L200.461 28.696H201.509C202.074 28.696 202.528 28.7653 202.869 28.904C203.21 29.0427 203.456 29.2373 203.605 29.488C203.76 29.7333 203.837 30.0213 203.837 30.352C203.837 30.6667 203.762 30.9547 203.613 31.216C203.464 31.472 203.24 31.6747 202.941 31.824C202.642 31.9733 202.264 32.048 201.805 32.048ZM207.414 32L211.238 26.4H211.71L207.886 32H207.414ZM207.846 29.4C207.595 29.4 207.374 29.3387 207.182 29.216C206.99 29.088 206.841 28.9093 206.734 28.68C206.633 28.4507 206.582 28.184 206.582 27.88C206.582 27.576 206.633 27.3093 206.734 27.08C206.841 26.8507 206.99 26.6747 207.182 26.552C207.374 26.424 207.595 26.36 207.846 26.36C208.097 26.36 208.315 26.424 208.502 26.552C208.694 26.6747 208.843 26.8507 208.95 27.08C209.057 27.3093 209.11 27.576 209.11 27.88C209.11 28.184 209.057 28.4507 208.95 28.68C208.843 28.9093 208.694 29.088 208.502 29.216C208.315 29.3387 208.097 29.4 207.846 29.4ZM207.846 29.04C208.107 29.04 208.315 28.9387 208.47 28.736C208.63 28.528 208.71 28.2427 208.71 27.88C208.71 27.5173 208.63 27.2347 208.47 27.032C208.315 26.824 208.107 26.72 207.846 26.72C207.579 26.72 207.369 26.824 207.214 27.032C207.059 27.2347 206.982 27.5173 206.982 27.88C206.982 28.2427 207.059 28.528 207.214 28.736C207.369 28.9387 207.579 29.04 207.846 29.04ZM211.278 32.04C211.033 32.04 210.814 31.9787 210.622 31.856C210.43 31.728 210.281 31.5493 210.174 31.32C210.067 31.0907 210.014 30.824 210.014 30.52C210.014 30.216 210.067 29.9493 210.174 29.72C210.281 29.4907 210.43 29.3147 210.622 29.192C210.814 29.064 211.033 29 211.278 29C211.534 29 211.755 29.064 211.942 29.192C212.134 29.3147 212.281 29.4907 212.382 29.72C212.489 29.9493 212.542 30.216 212.542 30.52C212.542 30.824 212.489 31.0907 212.382 31.32C212.281 31.5493 212.134 31.728 211.942 31.856C211.755 31.9787 211.534 32.04 211.278 32.04ZM211.278 31.68C211.539 31.68 211.747 31.5787 211.902 31.376C212.062 31.168 212.142 30.8827 212.142 30.52C212.142 30.1573 212.062 29.8747 211.902 29.672C211.747 29.464 211.539 29.36 211.278 29.36C211.017 29.36 210.806 29.464 210.646 29.672C210.491 29.8747 210.414 30.1573 210.414 30.52C210.414 30.8827 210.491 31.168 210.646 31.376C210.806 31.5787 211.017 31.68 211.278 31.68Z" fill="black"/>
<path d="M242.609 32V31.592L244.937 29.312C245.15 29.104 245.31 28.9227 245.417 28.768C245.524 28.608 245.596 28.4587 245.633 28.32C245.67 28.1813 245.689 28.0507 245.689 27.928C245.689 27.6027 245.577 27.3467 245.353 27.16C245.134 26.9733 244.809 26.88 244.377 26.88C244.046 26.88 243.753 26.9307 243.497 27.032C243.246 27.1333 243.03 27.2907 242.849 27.504L242.441 27.152C242.66 26.896 242.94 26.6987 243.281 26.56C243.622 26.4213 244.004 26.352 244.425 26.352C244.804 26.352 245.132 26.4133 245.409 26.536C245.686 26.6533 245.9 26.8267 246.049 27.056C246.204 27.2853 246.281 27.5547 246.281 27.864C246.281 28.0453 246.254 28.224 246.201 28.4C246.153 28.576 246.062 28.7627 245.929 28.96C245.801 29.152 245.612 29.3707 245.361 29.616L243.225 31.712L243.065 31.488H246.537V32H242.609ZM249.028 32.048C248.628 32.048 248.246 31.984 247.884 31.856C247.521 31.7227 247.233 31.5467 247.02 31.328L247.3 30.872C247.476 31.0587 247.716 31.2133 248.02 31.336C248.329 31.4587 248.662 31.52 249.02 31.52C249.494 31.52 249.854 31.416 250.1 31.208C250.35 30.9947 250.476 30.7173 250.476 30.376C250.476 30.136 250.417 29.9307 250.3 29.76C250.188 29.584 249.996 29.448 249.724 29.352C249.452 29.256 249.078 29.208 248.604 29.208H247.412L247.7 26.4H250.764V26.912H247.932L248.228 26.632L247.98 28.984L247.684 28.696H248.732C249.297 28.696 249.75 28.7653 250.092 28.904C250.433 29.0427 250.678 29.2373 250.828 29.488C250.982 29.7333 251.06 30.0213 251.06 30.352C251.06 30.6667 250.985 30.9547 250.836 31.216C250.686 31.472 250.462 31.6747 250.164 31.824C249.865 31.9733 249.486 32.048 249.028 32.048ZM253.423 30.896V27.504H253.927V30.896H253.423ZM251.935 29.44V28.968H255.415V29.44H251.935ZM259.238 32L263.062 26.4H263.534L259.71 32H259.238ZM259.67 29.4C259.42 29.4 259.198 29.3387 259.006 29.216C258.814 29.088 258.665 28.9093 258.558 28.68C258.457 28.4507 258.406 28.184 258.406 27.88C258.406 27.576 258.457 27.3093 258.558 27.08C258.665 26.8507 258.814 26.6747 259.006 26.552C259.198 26.424 259.42 26.36 259.67 26.36C259.921 26.36 260.14 26.424 260.326 26.552C260.518 26.6747 260.668 26.8507 260.774 27.08C260.881 27.3093 260.934 27.576 260.934 27.88C260.934 28.184 260.881 28.4507 260.774 28.68C260.668 28.9093 260.518 29.088 260.326 29.216C260.14 29.3387 259.921 29.4 259.67 29.4ZM259.67 29.04C259.932 29.04 260.14 28.9387 260.294 28.736C260.454 28.528 260.534 28.2427 260.534 27.88C260.534 27.5173 260.454 27.2347 260.294 27.032C260.14 26.824 259.932 26.72 259.67 26.72C259.404 26.72 259.193 26.824 259.038 27.032C258.884 27.2347 258.806 27.5173 258.806 27.88C258.806 28.2427 258.884 28.528 259.038 28.736C259.193 28.9387 259.404 29.04 259.67 29.04ZM263.102 32.04C262.857 32.04 262.638 31.9787 262.446 31.856C262.254 31.728 262.105 31.5493 261.998 31.32C261.892 31.0907 261.838 30.824 261.838 30.52C261.838 30.216 261.892 29.9493 261.998 29.72C262.105 29.4907 262.254 29.3147 262.446 29.192C262.638 29.064 262.857 29 263.102 29C263.358 29 263.58 29.064 263.766 29.192C263.958 29.3147 264.105 29.4907 264.206 29.72C264.313 29.9493 264.366 30.216 264.366 30.52C264.366 30.824 264.313 31.0907 264.206 31.32C264.105 31.5493 263.958 31.728 263.766 31.856C263.58 31.9787 263.358 32.04 263.102 32.04ZM263.102 31.68C263.364 31.68 263.572 31.5787 263.726 31.376C263.886 31.168 263.966 30.8827 263.966 30.52C263.966 30.1573 263.886 29.8747 263.726 29.672C263.572 29.464 263.364 29.36 263.102 29.36C262.841 29.36 262.63 29.464 262.47 29.672C262.316 29.8747 262.238 30.1573 262.238 30.52C262.238 30.8827 262.316 31.168 262.47 31.376C262.63 31.5787 262.841 31.68 263.102 31.68Z" fill="black"/>
</g>
<path d="M63.6068 8.048C63.1855 8.048 62.7962 7.97867 62.4388 7.84C62.0815 7.696 61.7722 7.496 61.5108 7.24C61.2495 6.984 61.0442 6.68267 60.8948 6.336C60.7508 5.98933 60.6788 5.61067 60.6788 5.2C60.6788 4.78933 60.7508 4.41067 60.8948 4.064C61.0442 3.71733 61.2495 3.416 61.5108 3.16C61.7775 2.904 62.0895 2.70667 62.4468 2.568C62.8042 2.424 63.1935 2.352 63.6148 2.352C64.0202 2.352 64.4015 2.42133 64.7588 2.56C65.1162 2.69333 65.4175 2.896 65.6628 3.168L65.2868 3.544C65.0575 3.30933 64.8042 3.14133 64.5268 3.04C64.2495 2.93333 63.9508 2.88 63.6308 2.88C63.2948 2.88 62.9828 2.93867 62.6948 3.056C62.4068 3.168 62.1562 3.33067 61.9428 3.544C61.7295 3.752 61.5615 3.99733 61.4388 4.28C61.3215 4.55733 61.2628 4.864 61.2628 5.2C61.2628 5.536 61.3215 5.84533 61.4388 6.128C61.5615 6.40533 61.7295 6.65067 61.9428 6.864C62.1562 7.072 62.4068 7.23467 62.6948 7.352C62.9828 7.464 63.2948 7.52 63.6308 7.52C63.9508 7.52 64.2495 7.46667 64.5268 7.36C64.8042 7.25333 65.0575 7.08267 65.2868 6.848L65.6628 7.224C65.4175 7.496 65.1162 7.70133 64.7588 7.84C64.4015 7.97867 64.0175 8.048 63.6068 8.048ZM66.7494 8V3.8H70.5254V8H69.9574V4.144L70.1014 4.296H67.1734L67.3174 4.144V8H66.7494ZM73.868 8.04C73.4627 8.04 73.0974 7.94933 72.772 7.768C72.452 7.58133 72.1987 7.328 72.012 7.008C71.8254 6.68267 71.732 6.312 71.732 5.896C71.732 5.47467 71.8254 5.104 72.012 4.784C72.1987 4.464 72.452 4.21333 72.772 4.032C73.092 3.85067 73.4574 3.76 73.868 3.76C74.284 3.76 74.652 3.85067 74.972 4.032C75.2974 4.21333 75.5507 4.464 75.732 4.784C75.9187 5.104 76.012 5.47467 76.012 5.896C76.012 6.312 75.9187 6.68267 75.732 7.008C75.5507 7.328 75.2974 7.58133 74.972 7.768C74.6467 7.94933 74.2787 8.04 73.868 8.04ZM73.868 7.536C74.172 7.536 74.4414 7.46933 74.676 7.336C74.9107 7.19733 75.0947 7.00533 75.228 6.76C75.3667 6.50933 75.436 6.22133 75.436 5.896C75.436 5.56533 75.3667 5.27733 75.228 5.032C75.0947 4.78667 74.9107 4.59733 74.676 4.464C74.4414 4.32533 74.1747 4.256 73.876 4.256C73.5774 4.256 73.3107 4.32533 73.076 4.464C72.8414 4.59733 72.6547 4.78667 72.516 5.032C72.3774 5.27733 72.308 5.56533 72.308 5.896C72.308 6.22133 72.3774 6.50933 72.516 6.76C72.6547 7.00533 72.8414 7.19733 73.076 7.336C73.3107 7.46933 73.5747 7.536 73.868 7.536ZM79.394 8.04C79.0313 8.04 78.7033 7.95733 78.41 7.792C78.1166 7.62133 77.882 7.37867 77.706 7.064C77.5353 6.744 77.45 6.35467 77.45 5.896C77.45 5.43733 77.5353 5.05067 77.706 4.736C77.8766 4.416 78.1086 4.17333 78.402 4.008C78.6953 3.84267 79.026 3.76 79.394 3.76C79.794 3.76 80.1513 3.85067 80.466 4.032C80.786 4.208 81.0366 4.45867 81.218 4.784C81.3993 5.104 81.49 5.47467 81.49 5.896C81.49 6.32267 81.3993 6.696 81.218 7.016C81.0366 7.336 80.786 7.58667 80.466 7.768C80.1513 7.94933 79.794 8.04 79.394 8.04ZM77.226 9.552V3.8H77.77V5.064L77.714 5.904L77.794 6.752V9.552H77.226ZM79.354 7.536C79.6526 7.536 79.9193 7.46933 80.154 7.336C80.3886 7.19733 80.5753 7.00533 80.714 6.76C80.8526 6.50933 80.922 6.22133 80.922 5.896C80.922 5.57067 80.8526 5.28533 80.714 5.04C80.5753 4.79467 80.3886 4.60267 80.154 4.464C79.9193 4.32533 79.6526 4.256 79.354 4.256C79.0553 4.256 78.786 4.32533 78.546 4.464C78.3113 4.60267 78.1246 4.79467 77.986 5.04C77.8526 5.28533 77.786 5.57067 77.786 5.896C77.786 6.22133 77.8526 6.50933 77.986 6.76C78.1246 7.00533 78.3113 7.19733 78.546 7.336C78.786 7.46933 79.0553 7.536 79.354 7.536ZM83.3541 8V4.144L83.4981 4.296H81.7621V3.8H85.5141V4.296H83.7781L83.9221 4.144V8H83.3541ZM87.9 8.04C87.484 8.04 87.1107 7.94933 86.78 7.768C86.4547 7.58133 86.1987 7.328 86.012 7.008C85.8254 6.68267 85.732 6.312 85.732 5.896C85.732 5.47467 85.8254 5.104 86.012 4.784C86.1987 4.464 86.4547 4.21333 86.78 4.032C87.1107 3.85067 87.484 3.76 87.9 3.76C88.2574 3.76 88.58 3.82933 88.868 3.968C89.156 4.10667 89.3827 4.31467 89.548 4.592L89.124 4.88C88.98 4.66667 88.8014 4.50933 88.588 4.408C88.3747 4.30667 88.1427 4.256 87.892 4.256C87.5934 4.256 87.324 4.32533 87.084 4.464C86.844 4.59733 86.6547 4.78667 86.516 5.032C86.3774 5.27733 86.308 5.56533 86.308 5.896C86.308 6.22667 86.3774 6.51467 86.516 6.76C86.6547 7.00533 86.844 7.19733 87.084 7.336C87.324 7.46933 87.5934 7.536 87.892 7.536C88.1427 7.536 88.3747 7.48533 88.588 7.384C88.8014 7.28267 88.98 7.128 89.124 6.92L89.548 7.208C89.3827 7.48 89.156 7.688 88.868 7.832C88.58 7.97067 88.2574 8.04 87.9 8.04ZM90.6478 8V3.8H91.2238L93.1278 7.024H92.8878L94.8238 3.8H95.3518V8H94.8318V4.448L94.9358 4.496L93.1278 7.488H92.8718L91.0478 4.464L91.1678 4.44V8H90.6478ZM98.7682 8.04C98.3308 8.04 97.9468 7.94933 97.6162 7.768C97.2855 7.58133 97.0268 7.328 96.8402 7.008C96.6535 6.68267 96.5602 6.312 96.5602 5.896C96.5602 5.48 96.6482 5.112 96.8242 4.792C97.0055 4.472 97.2508 4.22133 97.5602 4.04C97.8748 3.85333 98.2268 3.76 98.6162 3.76C99.0108 3.76 99.3602 3.85067 99.6642 4.032C99.9735 4.208 100.216 4.45867 100.392 4.784C100.568 5.104 100.656 5.47467 100.656 5.896C100.656 5.92267 100.653 5.952 100.648 5.984C100.648 6.01067 100.648 6.04 100.648 6.072H96.9922V5.648H100.344L100.12 5.816C100.12 5.512 100.053 5.24267 99.9202 5.008C99.7922 4.768 99.6162 4.58133 99.3922 4.448C99.1682 4.31467 98.9095 4.248 98.6162 4.248C98.3282 4.248 98.0695 4.31467 97.8402 4.448C97.6108 4.58133 97.4322 4.768 97.3042 5.008C97.1762 5.248 97.1122 5.52267 97.1122 5.832V5.92C97.1122 6.24 97.1815 6.52267 97.3202 6.768C97.4642 7.008 97.6615 7.19733 97.9122 7.336C98.1682 7.46933 98.4588 7.536 98.7842 7.536C99.0402 7.536 99.2775 7.49067 99.4962 7.4C99.7202 7.30933 99.9122 7.17067 100.072 6.984L100.392 7.352C100.205 7.576 99.9708 7.74667 99.6882 7.864C99.4108 7.98133 99.1042 8.04 98.7682 8.04ZM101.913 8V3.8H102.481V5.656H105.129V3.8H105.697V8H105.129V6.144H102.481V8H101.913ZM111.408 8V3.8H111.976V8H111.408ZM109.08 5.28C109.608 5.28533 110.011 5.40267 110.288 5.632C110.565 5.86133 110.704 6.192 110.704 6.624C110.704 7.072 110.555 7.416 110.256 7.656C109.957 7.896 109.531 8.01333 108.976 8.008L107.312 8V3.8H107.88V5.264L109.08 5.28ZM108.936 7.576C109.331 7.58133 109.627 7.504 109.824 7.344C110.027 7.17867 110.128 6.93867 110.128 6.624C110.128 6.30933 110.029 6.08 109.832 5.936C109.635 5.78667 109.336 5.70933 108.936 5.704L107.88 5.688V7.56L108.936 7.576Z" fill="white"/>
<path d="M127.635 57.616C126.968 57.616 126.398 57.5227 125.923 57.336C125.448 57.144 125.083 56.8667 124.827 56.504C124.571 56.1413 124.443 55.704 124.443 55.192C124.443 54.68 124.571 54.2453 124.827 53.888C125.083 53.5253 125.448 53.248 125.923 53.056C126.398 52.864 126.968 52.768 127.635 52.768C127.64 52.768 127.654 52.768 127.675 52.768C127.696 52.768 127.718 52.768 127.739 52.768C127.76 52.768 127.774 52.768 127.779 52.768C128.451 52.768 129.024 52.864 129.499 53.056C129.974 53.248 130.339 53.5253 130.595 53.888C130.851 54.2453 130.979 54.68 130.979 55.192C130.979 55.704 130.851 56.1413 130.595 56.504C130.344 56.8667 129.982 57.144 129.507 57.336C129.032 57.5227 128.464 57.616 127.803 57.616C127.792 57.616 127.774 57.616 127.747 57.616C127.726 57.616 127.702 57.616 127.675 57.616C127.654 57.616 127.64 57.616 127.635 57.616ZM127.699 57.152C127.71 57.152 127.72 57.152 127.731 57.152C127.742 57.152 127.75 57.152 127.755 57.152C128.315 57.1467 128.792 57.0693 129.187 56.92C129.587 56.7653 129.891 56.544 130.099 56.256C130.307 55.9627 130.411 55.608 130.411 55.192C130.411 54.7707 130.304 54.416 130.091 54.128C129.883 53.84 129.582 53.6213 129.187 53.472C128.798 53.3173 128.326 53.24 127.771 53.24C127.766 53.24 127.755 53.24 127.739 53.24C127.723 53.24 127.71 53.24 127.699 53.24C127.134 53.24 126.651 53.3147 126.251 53.464C125.851 53.6133 125.544 53.8347 125.331 54.128C125.118 54.416 125.011 54.7707 125.011 55.192C125.011 55.6187 125.118 55.9787 125.331 56.272C125.55 56.56 125.859 56.7787 126.259 56.928C126.664 57.0773 127.144 57.152 127.699 57.152ZM127.435 58.192V52.208H127.987V58.192H127.435ZM132.187 58V53.8H132.755V57.136L135.563 53.8H136.067V58H135.499V54.656L132.699 58H132.187ZM138.495 58V54.144L138.639 54.296H136.903V53.8H140.655V54.296H138.919L139.063 54.144V58H138.495ZM141.476 58V53.8H142.044V55.656H144.692V53.8H145.26V58H144.692V56.144H142.044V58H141.476ZM148.674 58.04C148.237 58.04 147.853 57.9493 147.522 57.768C147.192 57.5813 146.933 57.328 146.746 57.008C146.56 56.6827 146.466 56.312 146.466 55.896C146.466 55.48 146.554 55.112 146.73 54.792C146.912 54.472 147.157 54.2213 147.466 54.04C147.781 53.8533 148.133 53.76 148.522 53.76C148.917 53.76 149.266 53.8507 149.57 54.032C149.88 54.208 150.122 54.4587 150.298 54.784C150.474 55.104 150.562 55.4747 150.562 55.896C150.562 55.9227 150.56 55.952 150.554 55.984C150.554 56.0107 150.554 56.04 150.554 56.072H146.898V55.648H150.25L150.026 55.816C150.026 55.512 149.96 55.2427 149.826 55.008C149.698 54.768 149.522 54.5813 149.298 54.448C149.074 54.3147 148.816 54.248 148.522 54.248C148.234 54.248 147.976 54.3147 147.746 54.448C147.517 54.5813 147.338 54.768 147.21 55.008C147.082 55.248 147.018 55.5227 147.018 55.832V55.92C147.018 56.24 147.088 56.5227 147.226 56.768C147.37 57.008 147.568 57.1973 147.818 57.336C148.074 57.4693 148.365 57.536 148.69 57.536C148.946 57.536 149.184 57.4907 149.402 57.4C149.626 57.3093 149.818 57.1707 149.978 56.984L150.298 57.352C150.112 57.576 149.877 57.7467 149.594 57.864C149.317 57.9813 149.01 58.04 148.674 58.04ZM153.58 58.04C153.164 58.04 152.79 57.9493 152.46 57.768C152.134 57.5813 151.878 57.328 151.692 57.008C151.505 56.6827 151.412 56.312 151.412 55.896C151.412 55.4747 151.505 55.104 151.692 54.784C151.878 54.464 152.134 54.2133 152.46 54.032C152.79 53.8507 153.164 53.76 153.58 53.76C153.937 53.76 154.26 53.8293 154.548 53.968C154.836 54.1067 155.062 54.3147 155.228 54.592L154.804 54.88C154.66 54.6667 154.481 54.5093 154.268 54.408C154.054 54.3067 153.822 54.256 153.572 54.256C153.273 54.256 153.004 54.3253 152.764 54.464C152.524 54.5973 152.334 54.7867 152.196 55.032C152.057 55.2773 151.988 55.5653 151.988 55.896C151.988 56.2267 152.057 56.5147 152.196 56.76C152.334 57.0053 152.524 57.1973 152.764 57.336C153.004 57.4693 153.273 57.536 153.572 57.536C153.822 57.536 154.054 57.4853 154.268 57.384C154.481 57.2827 154.66 57.128 154.804 56.92L155.228 57.208C155.062 57.48 154.836 57.688 154.548 57.832C154.26 57.9707 153.937 58.04 153.58 58.04ZM158.017 58.04C157.601 58.04 157.228 57.9493 156.897 57.768C156.572 57.5813 156.316 57.328 156.129 57.008C155.943 56.6827 155.849 56.312 155.849 55.896C155.849 55.4747 155.943 55.104 156.129 54.784C156.316 54.464 156.572 54.2133 156.897 54.032C157.228 53.8507 157.601 53.76 158.017 53.76C158.375 53.76 158.697 53.8293 158.985 53.968C159.273 54.1067 159.5 54.3147 159.665 54.592L159.241 54.88C159.097 54.6667 158.919 54.5093 158.705 54.408C158.492 54.3067 158.26 54.256 158.009 54.256C157.711 54.256 157.441 54.3253 157.201 54.464C156.961 54.5973 156.772 54.7867 156.633 55.032C156.495 55.2773 156.425 55.5653 156.425 55.896C156.425 56.2267 156.495 56.5147 156.633 56.76C156.772 57.0053 156.961 57.1973 157.201 57.336C157.441 57.4693 157.711 57.536 158.009 57.536C158.26 57.536 158.492 57.4853 158.705 57.384C158.919 57.2827 159.097 57.128 159.241 56.92L159.665 57.208C159.5 57.48 159.273 57.688 158.985 57.832C158.697 57.9707 158.375 58.04 158.017 58.04Z" fill="white"/>
<path d="M180.544 8.048C180.123 8.048 179.734 7.97867 179.376 7.84C179.019 7.696 178.71 7.496 178.448 7.24C178.187 6.984 177.982 6.68267 177.832 6.336C177.688 5.98933 177.616 5.61067 177.616 5.2C177.616 4.78933 177.688 4.41067 177.832 4.064C177.982 3.71733 178.187 3.416 178.448 3.16C178.715 2.904 179.027 2.70667 179.384 2.568C179.742 2.424 180.131 2.352 180.552 2.352C180.958 2.352 181.339 2.42133 181.696 2.56C182.054 2.69333 182.355 2.896 182.6 3.168L182.224 3.544C181.995 3.30933 181.742 3.14133 181.464 3.04C181.187 2.93333 180.888 2.88 180.568 2.88C180.232 2.88 179.92 2.93867 179.632 3.056C179.344 3.168 179.094 3.33067 178.88 3.544C178.667 3.752 178.499 3.99733 178.376 4.28C178.259 4.55733 178.2 4.864 178.2 5.2C178.2 5.536 178.259 5.84533 178.376 6.128C178.499 6.40533 178.667 6.65067 178.88 6.864C179.094 7.072 179.344 7.23467 179.632 7.352C179.92 7.464 180.232 7.52 180.568 7.52C180.888 7.52 181.187 7.46667 181.464 7.36C181.742 7.25333 181.995 7.08267 182.224 6.848L182.6 7.224C182.355 7.496 182.054 7.70133 181.696 7.84C181.339 7.97867 180.955 8.048 180.544 8.048ZM185.855 8.04C185.492 8.04 185.164 7.95733 184.871 7.792C184.578 7.62133 184.343 7.37867 184.167 7.064C183.996 6.744 183.911 6.35467 183.911 5.896C183.911 5.43733 183.996 5.05067 184.167 4.736C184.338 4.416 184.57 4.17333 184.863 4.008C185.156 3.84267 185.487 3.76 185.855 3.76C186.255 3.76 186.612 3.85067 186.927 4.032C187.247 4.208 187.498 4.45867 187.679 4.784C187.86 5.104 187.951 5.47467 187.951 5.896C187.951 6.32267 187.86 6.696 187.679 7.016C187.498 7.336 187.247 7.58667 186.927 7.768C186.612 7.94933 186.255 8.04 185.855 8.04ZM183.687 9.552V3.8H184.231V5.064L184.175 5.904L184.255 6.752V9.552H183.687ZM185.815 7.536C186.114 7.536 186.38 7.46933 186.615 7.336C186.85 7.19733 187.036 7.00533 187.175 6.76C187.314 6.50933 187.383 6.22133 187.383 5.896C187.383 5.57067 187.314 5.28533 187.175 5.04C187.036 4.79467 186.85 4.60267 186.615 4.464C186.38 4.32533 186.114 4.256 185.815 4.256C185.516 4.256 185.247 4.32533 185.007 4.464C184.772 4.60267 184.586 4.79467 184.447 5.04C184.314 5.28533 184.247 5.57067 184.247 5.896C184.247 6.22133 184.314 6.50933 184.447 6.76C184.586 7.00533 184.772 7.19733 185.007 7.336C185.247 7.46933 185.516 7.536 185.815 7.536ZM190.971 8.04C190.534 8.04 190.15 7.94933 189.819 7.768C189.489 7.58133 189.23 7.328 189.043 7.008C188.857 6.68267 188.763 6.312 188.763 5.896C188.763 5.48 188.851 5.112 189.027 4.792C189.209 4.472 189.454 4.22133 189.763 4.04C190.078 3.85333 190.43 3.76 190.819 3.76C191.214 3.76 191.563 3.85067 191.867 4.032C192.177 4.208 192.419 4.45867 192.595 4.784C192.771 5.104 192.859 5.47467 192.859 5.896C192.859 5.92267 192.857 5.952 192.851 5.984C192.851 6.01067 192.851 6.04 192.851 6.072H189.195V5.648H192.547L192.323 5.816C192.323 5.512 192.257 5.24267 192.123 5.008C191.995 4.768 191.819 4.58133 191.595 4.448C191.371 4.31467 191.113 4.248 190.819 4.248C190.531 4.248 190.273 4.31467 190.043 4.448C189.814 4.58133 189.635 4.768 189.507 5.008C189.379 5.248 189.315 5.52267 189.315 5.832V5.92C189.315 6.24 189.385 6.52267 189.523 6.768C189.667 7.008 189.865 7.19733 190.115 7.336C190.371 7.46933 190.662 7.536 190.987 7.536C191.243 7.536 191.481 7.49067 191.699 7.4C191.923 7.30933 192.115 7.17067 192.275 6.984L192.595 7.352C192.409 7.576 192.174 7.74667 191.891 7.864C191.614 7.98133 191.307 8.04 190.971 8.04ZM196.911 7.728V4.296H194.887L194.839 5.232C194.828 5.51467 194.809 5.792 194.783 6.064C194.761 6.336 194.721 6.58667 194.663 6.816C194.609 7.04 194.532 7.224 194.431 7.368C194.329 7.50667 194.199 7.58667 194.039 7.608L193.471 7.504C193.636 7.50933 193.772 7.45067 193.879 7.328C193.985 7.2 194.068 7.02667 194.127 6.808C194.185 6.58933 194.228 6.34133 194.255 6.064C194.281 5.78133 194.303 5.49333 194.319 5.2L194.375 3.8H197.479V7.728H196.911ZM193.295 9.016V7.504H198.135V9.016H197.599V8H193.831V9.016H193.295ZM199.242 8V3.8H199.81V5.656H202.458V3.8H203.026V8H202.458V6.144H199.81V8H199.242ZM204.64 8V3.8H205.208V7.136L208.016 3.8H208.52V8H207.952V4.656L205.152 8H204.64ZM210.148 8V3.8H210.716V7.136L213.524 3.8H214.028V8H213.46V4.656L210.66 8H210.148ZM212.052 3.192C211.7 3.192 211.415 3.104 211.196 2.928C210.983 2.74667 210.871 2.488 210.86 2.152H211.268C211.273 2.36533 211.348 2.53333 211.492 2.656C211.636 2.77867 211.823 2.84 212.052 2.84C212.281 2.84 212.468 2.77867 212.612 2.656C212.761 2.53333 212.839 2.36533 212.844 2.152H213.252C213.247 2.488 213.135 2.74667 212.916 2.928C212.697 3.104 212.409 3.192 212.052 3.192Z" fill="white"/>
<path d="M238.122 55V49.752L238.282 49.912H236.154V49.4H240.674V49.912H238.554L238.706 49.752V55H238.122ZM241.376 56.592C241.179 56.592 240.989 56.56 240.808 56.496C240.632 56.432 240.48 56.336 240.352 56.208L240.616 55.784C240.723 55.8853 240.837 55.9627 240.96 56.016C241.088 56.0747 241.229 56.104 241.384 56.104C241.571 56.104 241.731 56.0507 241.864 55.944C242.003 55.8427 242.133 55.6613 242.256 55.4L242.528 54.784L242.592 54.696L244.32 50.8H244.88L242.776 55.504C242.659 55.776 242.528 55.992 242.384 56.152C242.245 56.312 242.093 56.424 241.928 56.488C241.763 56.5573 241.579 56.592 241.376 56.592ZM242.496 55.12L240.56 50.8H241.152L242.864 54.656L242.496 55.12ZM248.421 53.224C248.176 53.3307 247.928 53.416 247.677 53.48C247.432 53.5387 247.186 53.568 246.941 53.568C246.445 53.568 246.053 53.456 245.765 53.232C245.477 53.0027 245.333 52.6507 245.333 52.176V50.8H245.893V52.144C245.893 52.464 245.997 52.704 246.205 52.864C246.413 53.024 246.693 53.104 247.045 53.104C247.258 53.104 247.482 53.0773 247.717 53.024C247.952 52.9653 248.189 52.8827 248.429 52.776L248.421 53.224ZM248.373 55V50.8H248.941V55H248.373ZM250.554 55V50.8H251.122V52.656H253.77V50.8H254.338V55H253.77V53.144H251.122V55H250.554ZM260.049 55V50.8H260.617V55H260.049ZM257.721 52.28C258.249 52.2853 258.651 52.4027 258.929 52.632C259.206 52.8613 259.345 53.192 259.345 53.624C259.345 54.072 259.195 54.416 258.897 54.656C258.598 54.896 258.171 55.0133 257.617 55.008L255.953 55V50.8H256.521V52.264L257.721 52.28ZM257.577 54.576C257.971 54.5813 258.267 54.504 258.465 54.344C258.667 54.1787 258.769 53.9387 258.769 53.624C258.769 53.3093 258.67 53.08 258.473 52.936C258.275 52.7867 257.977 52.7093 257.577 52.704L256.521 52.688V54.56L257.577 54.576ZM262.234 55V50.8H262.802V54.136L265.61 50.8H266.114V55H265.546V51.656L262.746 55H262.234ZM264.138 50.192C263.786 50.192 263.5 50.104 263.282 49.928C263.068 49.7467 262.956 49.488 262.946 49.152H263.354C263.359 49.3653 263.434 49.5333 263.578 49.656C263.722 49.7787 263.908 49.84 264.138 49.84C264.367 49.84 264.554 49.7787 264.698 49.656C264.847 49.5333 264.924 49.3653 264.93 49.152H265.338C265.332 49.488 265.22 49.7467 265.002 49.928C264.783 50.104 264.495 50.192 264.138 50.192Z" fill="white"/>
<path d="M1.78566 55.392V54.904H4.88166V55.392H1.78566ZM2.48966 52.352C2.88966 52.352 3.25766 52.424 3.59366 52.568C3.92966 52.7067 4.22299 52.904 4.47366 53.16C4.72966 53.416 4.92699 53.7173 5.06566 54.064C5.20432 54.4107 5.27366 54.7893 5.27366 55.2C5.27366 55.6107 5.20432 55.9893 5.06566 56.336C4.92699 56.6827 4.72966 56.984 4.47366 57.24C4.22299 57.496 3.92966 57.696 3.59366 57.84C3.25766 57.9787 2.88966 58.048 2.48966 58.048C2.06299 58.048 1.66566 57.9787 1.29766 57.84C0.929656 57.7013 0.62299 57.496 0.377656 57.224L0.745656 56.848C0.980323 57.088 1.24166 57.2613 1.52966 57.368C1.81766 57.4693 2.12966 57.52 2.46566 57.52C2.78032 57.52 3.07099 57.4613 3.33766 57.344C3.60966 57.2267 3.84432 57.064 4.04166 56.856C4.24432 56.648 4.40166 56.4053 4.51366 56.128C4.62566 55.8453 4.68166 55.536 4.68166 55.2C4.68166 54.864 4.62566 54.5573 4.51366 54.28C4.40166 53.9973 4.24432 53.752 4.04166 53.544C3.84432 53.336 3.60966 53.1733 3.33766 53.056C3.07099 52.9387 2.78032 52.88 2.46566 52.88C2.12966 52.88 1.81766 52.9333 1.52966 53.04C1.24166 53.1467 0.980323 53.3173 0.745656 53.552L0.377656 53.176C0.62299 52.904 0.929656 52.6987 1.29766 52.56C1.66566 52.4213 2.06299 52.352 2.48966 52.352ZM8.91409 58.048C8.91409 58.048 8.90343 58.048 8.88209 58.048C8.86076 58.048 8.83943 58.048 8.81809 58.048C8.80209 58.048 8.78876 58.048 8.77809 58.048C7.94609 58.0427 7.29809 57.8533 6.83409 57.48C6.37009 57.1067 6.13809 56.576 6.13809 55.888C6.13809 55.2107 6.37009 54.688 6.83409 54.32C7.30343 53.9467 7.96209 53.7573 8.81009 53.752C8.81543 53.752 8.82609 53.752 8.84209 53.752C8.86343 53.752 8.88209 53.752 8.89809 53.752C8.91409 53.752 8.92476 53.752 8.93009 53.752C9.78343 53.7573 10.4474 53.9467 10.9221 54.32C11.3968 54.688 11.6341 55.2107 11.6341 55.888C11.6341 56.5813 11.3941 57.1147 10.9141 57.488C10.4394 57.8613 9.77276 58.048 8.91409 58.048ZM8.90609 57.552C9.38076 57.552 9.77809 57.488 10.0981 57.36C10.4181 57.2267 10.6608 57.0373 10.8261 56.792C10.9914 56.5467 11.0741 56.2453 11.0741 55.888C11.0741 55.5413 10.9914 55.248 10.8261 55.008C10.6608 54.7627 10.4181 54.576 10.0981 54.448C9.77809 54.32 9.38076 54.256 8.90609 54.256C8.90076 54.256 8.88476 54.256 8.85809 54.256C8.83676 54.256 8.82343 54.256 8.81809 54.256C8.35409 54.256 7.96476 54.3227 7.65009 54.456C7.33543 54.584 7.09809 54.768 6.93809 55.008C6.77809 55.248 6.69809 55.5413 6.69809 55.888C6.69809 56.24 6.77809 56.5387 6.93809 56.784C7.10343 57.0293 7.34343 57.2187 7.65809 57.352C7.97276 57.48 8.35943 57.5467 8.81809 57.552C8.82876 57.552 8.84476 57.552 8.86609 57.552C8.88743 57.552 8.90076 57.552 8.90609 57.552ZM8.60209 59.552V52.064H9.15409V59.552H8.60209ZM12.8353 58V53.8H13.4033V57.136L16.2113 53.8H16.7153V58H16.1473V54.656L13.3473 58H12.8353ZM20.5112 58.04C20.1485 58.04 19.8205 57.9573 19.5272 57.792C19.2338 57.6213 18.9992 57.3787 18.8232 57.064C18.6525 56.744 18.5672 56.3547 18.5672 55.896C18.5672 55.4373 18.6525 55.0507 18.8232 54.736C18.9938 54.416 19.2258 54.1733 19.5192 54.008C19.8125 53.8427 20.1432 53.76 20.5112 53.76C20.9112 53.76 21.2685 53.8507 21.5832 54.032C21.9032 54.208 22.1538 54.4587 22.3352 54.784C22.5165 55.104 22.6072 55.4747 22.6072 55.896C22.6072 56.3227 22.5165 56.696 22.3352 57.016C22.1538 57.336 21.9032 57.5867 21.5832 57.768C21.2685 57.9493 20.9112 58.04 20.5112 58.04ZM18.3432 59.552V53.8H18.8872V55.064L18.8312 55.904L18.9112 56.752V59.552H18.3432ZM20.4712 57.536C20.7698 57.536 21.0365 57.4693 21.2712 57.336C21.5058 57.1973 21.6925 57.0053 21.8312 56.76C21.9698 56.5093 22.0392 56.2213 22.0392 55.896C22.0392 55.5707 21.9698 55.2853 21.8312 55.04C21.6925 54.7947 21.5058 54.6027 21.2712 54.464C21.0365 54.3253 20.7698 54.256 20.4712 54.256C20.1725 54.256 19.9032 54.3253 19.6632 54.464C19.4285 54.6027 19.2418 54.7947 19.1032 55.04C18.9698 55.2853 18.9032 55.5707 18.9032 55.896C18.9032 56.2213 18.9698 56.5093 19.1032 56.76C19.2418 57.0053 19.4285 57.1973 19.6632 57.336C19.9032 57.4693 20.1725 57.536 20.4712 57.536ZM23.8275 58V53.8H24.3955V55.656H27.0435V53.8H27.6115V58H27.0435V56.144H24.3955V58H23.8275ZM33.322 58V53.8H33.89V58H33.322ZM30.994 55.28C31.522 55.2853 31.9246 55.4027 32.202 55.632C32.4793 55.8613 32.618 56.192 32.618 56.624C32.618 57.072 32.4686 57.416 32.17 57.656C31.8713 57.896 31.4446 58.0133 30.89 58.008L29.226 58V53.8H29.794V55.264L30.994 55.28ZM30.85 57.576C31.2446 57.5813 31.5406 57.504 31.738 57.344C31.9406 57.1787 32.042 56.9387 32.042 56.624C32.042 56.3093 31.9433 56.08 31.746 55.936C31.5486 55.7867 31.25 55.7093 30.85 55.704L29.794 55.688V57.56L30.85 57.576ZM35.5072 58V53.8H36.0752V57.136L38.8832 53.8H39.3872V58H38.8192V54.656L36.0192 58H35.5072ZM37.4112 53.192C37.0592 53.192 36.7739 53.104 36.5552 52.928C36.3419 52.7467 36.2299 52.488 36.2192 52.152H36.6272C36.6326 52.3653 36.7072 52.5333 36.8512 52.656C36.9952 52.7787 37.1819 52.84 37.4112 52.84C37.6406 52.84 37.8272 52.7787 37.9712 52.656C38.1206 52.5333 38.1979 52.3653 38.2032 52.152H38.6112C38.6059 52.488 38.4939 52.7467 38.2752 52.928C38.0566 53.104 37.7686 53.192 37.4112 53.192ZM48.0928 58L46.6528 55.92L47.1248 55.64L48.7728 58H48.0928ZM45.7088 56.128V55.64H47.0368V56.128H45.7088ZM47.1808 55.96L46.6368 55.88L48.0368 53.8H48.6528L47.1808 55.96ZM43.1168 58H42.4368L44.0848 55.64L44.5488 55.92L43.1168 58ZM45.8848 58H45.3168V53.8H45.8848V58ZM45.4928 56.128H44.1728V55.64H45.4928V56.128ZM44.0368 55.96L42.5568 53.8H43.1728L44.5648 55.88L44.0368 55.96ZM49.7182 58V53.8H50.2862V57.136L53.0942 53.8H53.5982V58H53.0302V54.656L50.2302 58H49.7182ZM57.394 58.04C57.0313 58.04 56.7033 57.9573 56.41 57.792C56.1166 57.6213 55.882 57.3787 55.706 57.064C55.5353 56.744 55.45 56.3547 55.45 55.896C55.45 55.4373 55.5353 55.0507 55.706 54.736C55.8766 54.416 56.1086 54.1733 56.402 54.008C56.6953 53.8427 57.026 53.76 57.394 53.76C57.794 53.76 58.1513 53.8507 58.466 54.032C58.786 54.208 59.0366 54.4587 59.218 54.784C59.3993 55.104 59.49 55.4747 59.49 55.896C59.49 56.3227 59.3993 56.696 59.218 57.016C59.0366 57.336 58.786 57.5867 58.466 57.768C58.1513 57.9493 57.794 58.04 57.394 58.04ZM55.226 59.552V53.8H55.77V55.064L55.714 55.904L55.794 56.752V59.552H55.226ZM57.354 57.536C57.6526 57.536 57.9193 57.4693 58.154 57.336C58.3886 57.1973 58.5753 57.0053 58.714 56.76C58.8526 56.5093 58.922 56.2213 58.922 55.896C58.922 55.5707 58.8526 55.2853 58.714 55.04C58.5753 54.7947 58.3886 54.6027 58.154 54.464C57.9193 54.3253 57.6526 54.256 57.354 54.256C57.0553 54.256 56.786 54.3253 56.546 54.464C56.3113 54.6027 56.1246 54.7947 55.986 55.04C55.8526 55.2853 55.786 55.5707 55.786 55.896C55.786 56.2213 55.8526 56.5093 55.986 56.76C56.1246 57.0053 56.3113 57.1973 56.546 57.336C56.786 57.4693 57.0553 57.536 57.354 57.536Z" fill="white"/>
</svg>
