<svg width="57" height="28" viewBox="0 0 57 28" fill="none" xmlns="http://www.w3.org/2000/svg">
<path d="M55.9786 13.8027C55.5709 9.95781 52.1864 6.92138 50.3899 3.0923C49.3845 0.94834 49.354 0.89614 48.9076 0.64625C48.6192 0.484966 47.4625 -0.00911127 46.8649 0.000127853C46.5239 0.00527096 44.3246 0.292515 44.2511 0.511051C44.2318 0.568179 44.0901 0.613605 43.9363 0.613297C43.4877 0.612681 42.6813 0.948366 42.385 1.25927C42.1688 1.48609 42.1023 1.67857 41.9914 2.52518C41.9663 2.67669 41.8297 3.77328 41.8765 4.32173C41.8207 5.07819 42.5394 6.02428 44.0706 6.23376C44.3311 6.3648 44.5584 6.35726 44.7724 6.29305C45.2133 6.31668 45.3445 5.99288 45.8678 5.89745C46.0449 6.0345 46.2803 5.97999 46.4812 5.87112C47.0827 5.8148 47.1566 5.4539 47.2814 5.09643C47.6811 5.92394 47.7782 6.90022 47.9538 7.79303C48.0427 9.13184 47.8599 9.84998 47.7569 12.8533C47.7362 12.869 47.7123 12.8938 47.688 12.9356C46.9596 12.0713 46.673 11.7677 45.3791 11.6235C44.0126 11.4715 43.4538 12.1445 42.0469 13.496C41.0219 12.9668 39.1665 12.428 39.0196 12.428C38.8243 12.428 38.8992 12.0249 38.6552 19.0062C38.6552 19.0062 38.6541 18.9387 38.6683 24.5822C38.6737 24.5747 38.6794 24.5666 38.6848 24.5591C38.7128 24.8259 39.1999 24.4073 39.7243 23.3822L40.2295 22.3965C40.9571 22.3965 42.7322 22.808 43.66 22.9536C48.7989 23.2295 52.1607 20.1262 53.8731 19.3145C54.9509 18.8034 56.0788 17.6918 56.336 16.8915C56.8065 15.4272 56.1509 15.4326 55.9786 13.8027Z" fill="#4D66F3"/>
<path d="M23.3241 16.4773H20.5462C19.9172 15.8973 19.4586 15.2074 19.1703 14.4077C18.8821 13.6081 18.7379 12.7732 18.7379 11.9032C18.7379 11.0244 18.9127 10.1588 19.2621 9.30636C19.6115 8.45396 20.1007 7.76851 20.7297 7.25H23.9138V8.83182H21.4765C21.2494 9.09545 21.0529 9.51286 20.8869 10.0841C20.7209 10.6465 20.6379 11.2485 20.6379 11.89C20.6379 12.5227 20.7122 13.1291 20.8607 13.7091C21.0179 14.2803 21.2101 14.6933 21.4372 14.9482H22.6952V11.3627H24.4248V13.5773C24.4248 14.79 24.0579 15.7567 23.3241 16.4773ZM28.3267 16.4773H26.4136V13.4059L24.4743 7.25H26.2564L27.0688 10.0577L27.3439 11.6791H27.3964L27.6715 10.0577L28.4839 7.25H30.266L28.3267 13.4059V16.4773ZM33.8447 12.2591L34.5392 9.37227L35.1026 7.25H36.7406L37.3302 16.4773H35.6137L35.3647 11.4418H35.2992L34.3557 15.1591H33.2812L32.3378 11.4418H32.2723L32.0233 16.4773H30.3068L30.8964 7.25H32.5344L33.0978 9.37227L33.7923 12.2591H33.8447ZM18.9738 27.6818V18.4545H22.7083C23.1363 18.6127 23.5163 18.8895 23.8483 19.285C24.1803 19.6805 24.3462 20.1594 24.3462 20.7218C24.3462 21.7149 24.023 22.4091 23.3766 22.8045V22.8573C24.1803 23.3055 24.5821 24.0085 24.5821 24.9664C24.5821 26.0649 24.0273 26.97 22.9179 27.6818H18.9738ZM20.7559 22.2641H22.0531C22.4375 22.0268 22.6297 21.6665 22.6297 21.1832C22.6297 20.6999 22.4506 20.3176 22.0924 20.0364H20.7559V22.2641ZM20.7559 26.1527H22.1055C22.2628 26.0385 22.4025 25.8583 22.5248 25.6123C22.6559 25.3662 22.7214 25.1201 22.7214 24.8741C22.7214 24.6281 22.669 24.404 22.5641 24.2018C22.4593 23.9997 22.3283 23.8503 22.171 23.7536H20.7559V26.1527ZM25.5383 18.4545H29.0238C29.5742 18.6391 30.0416 18.9818 30.4259 19.4827C30.819 19.9749 31.0155 20.5812 31.0155 21.3018C31.0155 22.4794 30.5526 23.345 29.6266 23.8986L30.95 27.6818H29.1155L28.0017 24.3205H27.3073V27.6818H25.5383V18.4545ZM27.3073 20.0364V22.8441H28.4342C28.5827 22.809 28.7443 22.6595 28.919 22.3959C29.1024 22.1235 29.1942 21.8071 29.1942 21.4468C29.1942 21.0865 29.1155 20.7701 28.9583 20.4977C28.8098 20.2253 28.6613 20.0715 28.5128 20.0364H27.3073ZM36.1058 18.4545C36.7173 18.9555 37.1716 19.6277 37.4686 20.4714C37.7656 21.315 37.9141 22.185 37.9141 23.0814C37.9141 23.969 37.77 24.8126 37.4817 25.6123C37.1934 26.4119 36.7348 27.1018 36.1058 27.6818H33.4065C32.7776 27.1018 32.3189 26.4119 32.0307 25.6123C31.7424 24.8126 31.5982 23.969 31.5982 23.0814C31.5982 22.185 31.7468 21.315 32.0438 20.4714C32.3408 19.6277 32.795 18.9555 33.4065 18.4545H36.1058ZM34.2845 26.1527H35.2279C35.4463 25.8979 35.6297 25.4849 35.7782 24.9136C35.9355 24.3336 36.0141 23.7229 36.0141 23.0814C36.0141 22.4399 35.9399 21.8379 35.7913 21.2755C35.6428 20.7042 35.4594 20.2912 35.241 20.0364H34.2845C34.0661 20.2912 33.8782 20.7042 33.721 21.2755C33.5725 21.8379 33.4982 22.4399 33.4982 23.0814C33.4982 23.7229 33.5725 24.3336 33.721 24.9136C33.8782 25.4849 34.0661 25.8979 34.2845 26.1527Z" fill="#4D66F3"/>
<path d="M0.524364 13.8027C0.93207 9.95781 4.31659 6.92138 6.11306 3.0923C7.11851 0.94834 7.14898 0.89614 7.59541 0.64625C7.88375 0.484966 9.04046 -0.00911127 9.63804 0.000127853C9.97906 0.00527096 12.1784 0.292515 12.2519 0.511051C12.2712 0.568179 12.4129 0.613605 12.5667 0.613297C13.0153 0.612681 13.8217 0.948366 14.118 1.25927C14.3342 1.48609 14.4007 1.67857 14.5116 2.52518C14.5367 2.67669 14.6732 3.77328 14.6265 4.32173C14.6823 5.07819 13.9636 6.02428 12.4324 6.23376C12.1719 6.3648 11.9446 6.35726 11.7305 6.29305C11.2897 6.31668 11.1585 5.99288 10.6352 5.89745C10.4581 6.0345 10.2226 5.97999 10.0218 5.87112C9.42033 5.8148 9.34642 5.4539 9.22161 5.09643C8.82189 5.92394 8.7248 6.90022 8.54921 7.79303C8.46024 9.13184 8.6431 9.84998 8.74609 12.8533C8.76679 12.869 8.79064 12.8938 8.81501 12.9356C9.5433 12.0713 9.82994 11.7677 11.1239 11.6235C12.4903 11.4715 13.0492 12.1445 14.4561 13.496C15.4811 12.9668 17.3364 12.428 17.4833 12.428C17.6787 12.428 17.6038 12.0249 17.8478 19.0062C17.8478 19.0062 17.8489 18.9387 17.8346 24.5822C17.8293 24.5747 17.8236 24.5666 17.8182 24.5591C17.7902 24.8259 17.303 24.4073 16.7786 23.3822L16.2735 22.3965C15.5459 22.3965 13.7707 22.808 12.8429 22.9536C7.7041 23.2295 4.34225 20.1262 2.62993 19.3145C1.55202 18.8034 0.42417 17.6918 0.16695 16.8915C-0.30357 15.4272 0.352076 15.4326 0.524364 13.8027Z" fill="#4D66F3"/>
</svg>
